<?xml version="1.0" encoding="utf-8"?>
<!-- Generator: Adobe Illustrator 25.0.0, SVG Export Plug-In . SVG Version: 6.00 Build 0)  -->
<svg version="1.1" id="van" xmlns="http://www.w3.org/2000/svg" xmlns:xlink="http://www.w3.org/1999/xlink" x="0px" y="0px"
	 viewBox="0 0 48 48" style="enable-background:new 0 0 48 48;" xml:space="preserve">
<style type="text/css">
	.st0{fill-rule:evenodd;clip-rule:evenodd;fill:#FF0000;}
	.st1{fill-rule:evenodd;clip-rule:evenodd;}
	.st2{fill-rule:evenodd;clip-rule:evenodd;fill:#FFFFFF;}
</style>
<path class="st0" d="M4,11v22h26V11H4z"/>
<path class="st1" d="M30,17h8.3l5.7,6v10H30V17z"/>
<circle class="st1" cx="12" cy="33" r="5"/>
<circle class="st0" cx="37" cy="33" r="5"/>
<path class="st2" d="M12,31c1.1,0,2,0.9,2,2c0,1.1-0.9,2-2,2s-2-0.9-2-2C10,31.9,10.9,31,12,31z M37,31c1.1,0,2,0.9,2,2
	c0,1.1-0.9,2-2,2s-2-0.9-2-2C35,31.9,35.9,31,37,31z M36,20l4,4h-7v-4H36z"/>
</svg>
